<svg version="1.2" xmlns="http://www.w3.org/2000/svg" viewBox="0 0 203 80" width="203" height="80">
	<title>logo_getresponse-svg</title>
	<style>
		tspan { white-space:pre } 
		.s0 { fill: #333333 } 
		.s1 { fill: #00baff } 
		.s2 { fill: #ffffff } 
		.t3 { font-size: 14px;fill: #000000;font-weight: 400;font-family: "DejaVuSans", "DejaVu Sans" } 
	</style>
	<g id="Layer">
		<g id="Layer">
			<path id="Layer" fill-rule="evenodd" class="s0" d="m182.8 22.2c3.2 0 4.9 2.3 4.9 5.3 0 0.3-0.1 1-0.1 1h-7.6c0.2 2 1.7 3 3.3 3 1.8 0 3.1-1.2 3.1-1.2l1.2 1.9c0 0-1.7 1.7-4.5 1.7-3.7 0-6-2.7-6-5.8 0-3.5 2.3-5.9 5.7-5.9zm2.1 4.4c0-1.3-1-2.2-2.1-2.2-1.4 0-2.4 0.9-2.7 2.2z"/>
			<path id="Layer" fill-rule="evenodd" class="s0" d="m78.3 22.2c3.2 0 4.9 2.3 4.9 5.3 0 0.3-0.1 1-0.1 1h-7.7c0.2 2 1.7 3 3.3 3 1.8 0 3.1-1.2 3.1-1.2l1.2 1.9c0 0-1.7 1.7-4.5 1.7-3.7 0-6-2.7-6-5.8 0.1-3.5 2.4-5.9 5.8-5.9zm2.1 4.4c0-1.3-1-2.2-2.1-2.2-1.4 0-2.4 0.9-2.7 2.2z"/>
			<path id="Layer" fill-rule="evenodd" class="s0" d="m110.3 22.2c3.2 0 4.9 2.3 4.9 5.3 0 0.3-0.1 1-0.1 1h-7.7c0.2 2 1.7 3 3.3 3 1.8 0 3.1-1.2 3.1-1.2l1.2 1.9c0 0-1.7 1.7-4.5 1.7-3.7 0-6-2.7-6-5.8 0.1-3.5 2.4-5.9 5.8-5.9zm2.1 4.4c0-1.3-1-2.2-2.1-2.2-1.4 0-2.4 0.9-2.7 2.2z"/>
			<path id="Layer" class="s0" d="m154.5 25.3c0-0.3-0.2-0.5-0.5-0.5h-0.9v-2.4h2.6c1 0 1.5 0.5 1.5 1.2v0.4c0 0.2 0 0.5 0 0.5 0.5-0.9 1.7-2.3 3.9-2.3 2.5 0 3.9 1.3 3.9 4.2v4.3c0 0.3 0.2 0.5 0.5 0.5h0.9v2.3h-2.6c-1 0-1.5-0.4-1.5-1.5v-5c0-1.4-0.3-2.3-1.7-2.3-1.5 0-2.6 0.9-3 2.3-0.2 0.5-0.2 1-0.2 1.5v5.1h-2.7v-8.3z"/>
			<path id="Layer" fill-rule="evenodd" class="s0" d="m146.3 22.2c3.4 0 6.1 2.4 6.1 5.8 0 3.4-2.7 5.8-6.1 5.8-3.4 0-6.1-2.4-6.1-5.8 0-3.4 2.7-5.8 6.1-5.8zm0 9.3c1.8 0 3.3-1.4 3.3-3.5 0-2-1.5-3.5-3.3-3.5-1.8 0-3.3 1.4-3.3 3.5 0 2.1 1.5 3.5 3.3 3.5z"/>
			<path id="Layer" fill-rule="evenodd" class="s0" d="m138.9 28c0 3.4-1.9 5.8-4.9 5.8-2.4 0-3.3-1.6-3.3-1.6 0 0 0 0.4 0 1v4.7h-2.8v-12.6c0-0.3-0.2-0.5-0.5-0.5h-0.9v-2.4h2.4c1 0 1.4 0.4 1.4 1 0 0.2 0 0.4 0 0.4 0 0 0.9-1.6 3.4-1.6 3.1 0 5.2 2.3 5.2 5.8zm-5.5 3.5c1.6 0 2.8-1.4 2.8-3.5 0-2.2-1.3-3.4-2.8-3.4-1.9 0-2.8 1.7-2.8 3.4 0 2.4 1.3 3.5 2.8 3.5z"/>
			<path id="Layer" class="s0" d="m117.9 30c0 0 1.4 1.6 3.3 1.6 0.8 0 1.5-0.3 1.5-1.1 0-1.6-5.9-1.5-5.9-5.1 0-2.2 2-3.2 4.3-3.2 1.5 0 3.9 0.5 3.9 2.3v1.2h-2.4v-0.5c0-0.5-0.8-0.8-1.4-0.8-1 0-1.7 0.3-1.7 1 0 1.7 5.9 1.4 5.9 5.1 0 2.1-1.9 3.4-4.3 3.4-3 0-4.6-2-4.6-2z"/>
			<path id="Layer" class="s0" d="m168.6 30c0 0 1.4 1.6 3.3 1.6 0.8 0 1.5-0.3 1.5-1.1 0-1.6-5.9-1.5-5.9-5.1 0-2.2 2-3.2 4.3-3.2 1.5 0 3.9 0.5 3.9 2.3v1.2h-2.4v-0.5c0-0.5-0.8-0.8-1.4-0.8-1 0-1.7 0.3-1.7 1 0 1.7 5.9 1.4 5.9 5.1 0 2.1-1.8 3.4-4.3 3.4-3 0-4.6-2-4.6-2z"/>
			<path id="Layer" class="s0" d="m90.5 31.2c-0.8 0-2.2-0.3-2.2-2.1v-4.5h2.5v-1q0-1.2-1.2-1.2h-0.6-0.7v-3h-2.7v3h-1.5v2.2h1.4v4.8c0 3.7 3.1 4.2 4.6 4.2 0.5 0 0.9-0.1 0.9-0.1v-2.4c0 0.1-0.2 0.1-0.5 0.1z"/>
			<path id="Layer" class="s0" d="m64.5 17.8c3.8 0 5.6 2 5.6 2l-1.6 2c0 0-1.6-1.4-4-1.4-2.7 0-5 2.1-5 5.3 0 3.4 2.3 5.5 5.1 5.5 2.5 0 3.9-1.6 3.9-1.6v-1.2c0-0.3-0.2-0.5-0.5-0.5h-0.9v-2.4h2.5c1 0 1.5 0.4 1.5 1.5v6.6h-2.4v-0.7c0-0.3 0-0.7 0-0.7 0 0-1.7 1.7-4.6 1.7-4.1 0-7.5-3.1-7.5-8.1 0-4.5 3.4-8 7.9-8z"/>
			<path id="Layer" fill-rule="evenodd" class="s0" d="m92.6 18.1h5.5c2.8 0 4.8 1.7 4.8 4.7 0 2.8-1.9 3.9-2.6 4.1 0 0 0.5 0.2 0.8 0.8l1.5 3c0.2 0.5 0.6 0.5 1.1 0.5h0.3v2.4h-1.5c-1.2 0-1.7-0.2-2.2-1.2l-2-3.9c-0.3-0.6-0.7-0.7-1.5-0.7h-1.4v5.8h-2.9zm5.1 7.2c1.4 0 2.3-0.9 2.3-2.4 0-1.5-0.9-2.4-2.2-2.4h-2.3v4.8z"/>
		</g>
		<g id="Layer">
			<g id="Layer">
				<path id="Layer" class="s1" d="m49 35.2c0 0.8-0.7 1.5-1.5 1.5h-31c-0.8 0-1.5-0.7-1.5-1.5v-18.7c0-0.8 0.6-1.5 1.5-1.5h31.1c0.8 0 1.5 0.7 1.5 1.5z"/>
			</g>
			<path id="Layer" class="s2" d="m48.6 15.5c-4 6.3-10.3 12-16.7 11.8-2.4-0.1-5.1-0.7-7.4-2.6-1.7-1.4-3.4-3.6-4.1-6.7-0.3 0-0.5 0-0.7 0-1 0-1.7 0.9-1.5 1.8 0 0.2 0.1 0.4 0.1 0.6 0.5 3 2.3 6.4 5.3 8.6 2.4 1.9 5.2 3 8.4 3 5.7 0 11.7-3.6 17-12.9v-2.7c0-0.3-0.2-0.6-0.4-0.9z"/>
		</g>
		<text id="Integration with Bitrix24" style="transform: matrix(1,0,0,1,14,53.75)" >
			<tspan x="0" y="0" class="t3">Integration with Bitrix2</tspan><tspan  y="0" class="t3">4
</tspan>
		</text>
		<text id="by BeUp Soft" style="transform: matrix(1,0,0,1,94,69)" >
			<tspan x="0" y="0" class="t3">b</tspan><tspan  y="0" class="t3">y</tspan><tspan  y="0" class="t3"> </tspan><tspan  y="0" class="t3">B</tspan><tspan  y="0" class="t3">e</tspan><tspan  y="0" class="t3">U</tspan><tspan  y="0" class="t3">p</tspan><tspan  y="0" class="t3"> </tspan><tspan  y="0" class="t3">S</tspan><tspan  y="0" class="t3">o</tspan><tspan  y="0" class="t3">f</tspan><tspan  y="0" class="t3">t
</tspan>
		</text>
	</g>
</svg>