<svg id="svg" version="1.1" xmlns="http://www.w3.org/2000/svg" xmlns:xlink="http://www.w3.org/1999/xlink" width="75" height="68" viewBox="0, 0, 400,343.80165289256195"><g id="svgg"><path id="path0" d="M200.600 19.708 C 190.849 30.556,182.825 39.553,182.770 39.701 C 182.713 39.855,185.830 39.970,190.058 39.970 L 197.446 39.970 197.452 105.409 C 197.459 168.154,197.647 187.024,198.337 194.339 C 200.403 216.221,218.841 229.467,247.183 229.429 C 268.283 229.402,282.053 222.084,289.558 206.912 C 293.635 198.670,293.608 199.241,293.611 123.742 L 293.614 64.914 272.589 64.914 L 251.565 64.914 251.458 129.151 C 251.345 197.206,251.363 196.363,249.946 199.233 C 248.171 202.828,242.870 202.997,241.106 199.514 C 239.831 196.994,239.820 196.261,239.820 116.537 L 239.820 39.970 247.183 39.970 C 251.232 39.970,254.545 39.898,254.545 39.810 C 254.545 39.504,219.034 0.150,218.683 0.067 C 218.489 0.022,210.352 8.860,200.600 19.708 M309.542 145.587 L 309.542 226.296 330.579 226.296 L 351.615 226.296 351.615 193.839 L 351.615 161.382 358.484 161.382 C 384.634 161.382,395.716 155.622,398.771 140.439 C 400.463 132.037,400.558 100.551,398.924 90.171 C 396.894 77.277,389.351 69.797,375.312 66.755 C 367.957 65.161,367.255 65.129,337.415 64.999 L 309.542 64.877 309.542 145.587 M358.157 93.352 C 364.123 94.596,365.017 97.491,364.754 114.723 C 364.502 131.250,363.248 133.434,354.005 133.434 L 351.615 133.434 351.615 112.980 L 351.615 92.526 353.794 92.711 C 354.992 92.813,356.956 93.101,358.157 93.352 " stroke="none" fill="#ec4c1c" fill-rule="evenodd"></path><path id="path1" d="M0.000 145.605 L 0.000 226.296 25.770 226.293 C 76.012 226.288,82.593 225.470,89.724 218.346 C 93.653 214.421,95.516 210.057,96.850 201.653 C 97.646 196.642,97.854 168.609,97.132 163.700 C 95.102 149.890,89.564 143.594,76.047 139.723 C 74.650 139.323,73.771 138.948,74.094 138.890 C 78.689 138.058,86.393 134.462,88.960 131.951 C 97.637 123.460,96.470 90.695,87.056 78.514 C 77.831 66.578,70.301 64.916,25.470 64.914 L 0.000 64.914 0.000 145.605 M47.539 93.028 C 54.214 93.621,56.036 98.553,55.306 114.050 C 54.720 126.488,53.623 128.024,45.325 128.024 L 42.074 128.024 42.074 110.278 L 42.074 92.532 43.802 92.691 C 44.752 92.778,46.434 92.930,47.539 93.028 M129.376 143.985 C 117.412 145.709,110.544 152.166,108.313 163.787 C 107.186 169.656,107.423 203.379,108.631 209.124 C 111.310 221.859,123.121 228.674,140.421 227.469 C 150.842 226.742,157.768 222.356,161.967 213.824 C 163.761 210.179,164.107 208.047,164.299 199.474 L 164.466 192.036 152.580 192.036 L 140.694 192.036 140.589 200.826 C 140.459 211.758,140.178 212.626,136.660 212.972 C 132.951 213.338,132.705 212.470,132.582 198.573 L 132.482 187.228 148.435 187.228 L 164.388 187.228 164.388 179.337 C 164.388 161.272,161.919 154.049,153.869 148.561 C 148.056 144.598,138.070 142.732,129.376 143.985 M49.070 154.325 C 55.077 155.554,55.854 158.549,55.506 179.113 C 55.223 195.853,54.397 197.271,44.403 198.185 L 42.074 198.398 42.074 175.945 L 42.074 153.491 44.553 153.700 C 45.917 153.815,47.949 154.096,49.070 154.325 M137.686 158.702 C 138.951 159.379,139.234 160.844,139.381 167.468 L 139.519 173.704 136.025 173.704 L 132.532 173.704 132.542 168.820 C 132.555 162.172,132.862 159.931,133.881 159.055 C 134.747 158.310,136.628 158.136,137.686 158.702 M22.690 241.062 C 6.540 242.611,0.025 250.378,0.006 268.105 C -0.011 283.763,2.137 287.021,20.736 299.547 C 33.389 308.068,34.169 309.220,33.913 318.982 C 33.765 324.601,32.490 326.713,29.218 326.763 C 25.304 326.822,24.650 324.821,24.645 312.772 L 24.643 306.236 12.622 306.236 L 0.601 306.236 0.604 311.270 C 0.612 327.343,2.921 333.812,10.390 338.688 C 24.736 348.053,50.530 344.124,56.356 331.686 C 57.959 328.266,58.339 325.892,58.516 318.209 C 58.994 297.433,55.853 292.649,32.305 278.287 C 26.247 274.592,24.891 272.815,24.297 267.786 C 23.571 261.653,25.282 257.855,28.771 257.852 C 31.766 257.850,32.457 259.717,32.457 267.810 L 32.457 272.878 44.478 272.878 L 56.499 272.878 56.493 267.693 C 56.481 257.234,55.140 251.997,51.554 248.411 C 45.901 242.758,34.710 239.909,22.690 241.062 M239.863 243.158 C 228.827 244.139,225.433 247.887,225.404 259.128 L 225.394 262.660 222.840 262.660 L 220.285 262.660 220.285 269.121 L 220.285 275.582 222.840 275.582 L 225.394 275.582 225.394 308.640 L 225.394 341.698 237.866 341.698 L 250.338 341.698 250.338 308.640 L 250.338 275.582 253.193 275.582 L 256.048 275.582 256.048 269.121 L 256.048 262.660 250.939 262.660 L 245.830 262.660 245.830 260.601 C 245.830 256.419,246.340 256.028,252.066 255.816 L 256.048 255.669 256.048 249.247 L 256.048 242.825 249.361 242.866 C 245.684 242.889,241.409 243.020,239.863 243.158 M319.159 256.349 L 319.159 262.660 316.454 262.660 L 313.749 262.660 313.749 269.121 L 313.749 275.582 316.454 275.582 L 319.159 275.582 319.166 301.052 C 319.176 333.462,319.182 333.524,322.745 337.292 C 326.257 341.005,328.067 341.426,341.322 341.615 L 351.615 341.762 351.615 335.163 L 351.615 328.564 349.018 328.364 C 345.548 328.097,345.022 327.935,344.606 327.009 C 344.346 326.430,344.230 319.512,344.168 300.902 L 344.083 275.582 347.398 275.582 L 350.714 275.582 350.714 269.121 L 350.714 262.660 347.408 262.660 L 344.102 262.660 344.102 256.349 L 344.102 250.038 331.630 250.038 L 319.159 250.038 319.159 256.349 M131.480 259.387 C 119.432 260.267,111.380 266.625,108.976 277.159 C 106.942 286.071,107.148 320.473,109.280 327.830 C 111.922 336.945,118.223 341.608,129.618 342.878 C 147.923 344.919,160.558 338.150,163.304 324.832 C 164.638 318.358,164.835 283.460,163.569 277.825 C 161.249 267.503,152.072 260.291,140.254 259.501 C 138.900 259.411,137.115 259.294,136.289 259.241 C 135.462 259.189,133.298 259.255,131.480 259.387 M137.457 274.067 C 139.348 274.786,139.285 273.938,139.381 300.017 C 139.487 328.827,139.528 328.475,136.086 328.475 C 134.394 328.475,133.673 327.918,133.094 326.165 C 132.600 324.668,132.345 282.671,132.805 278.548 C 133.269 274.396,134.699 273.018,137.457 274.067 " stroke="none" fill="#4c4c4c" fill-rule="evenodd"></path><path id="path2" d="" stroke="none" fill="#f04c34" fill-rule="evenodd"></path><path id="path3" d="" stroke="none" fill="#784c34" fill-rule="evenodd"></path><path id="path4" d="" stroke="none" fill="#4c4c50" fill-rule="evenodd"></path></g></svg>